<?xml version="1.0" encoding="UTF-8" standalone="no"?>
<svg
   xmlns:dc="http://purl.org/dc/elements/1.1/"
   xmlns:cc="http://creativecommons.org/ns#"
   xmlns:rdf="http://www.w3.org/1999/02/22-rdf-syntax-ns#"
   xmlns:svg="http://www.w3.org/2000/svg"
   xmlns="http://www.w3.org/2000/svg"
   xmlns:sodipodi="http://sodipodi.sourceforge.net/DTD/sodipodi-0.dtd"
   xmlns:inkscape="http://www.inkscape.org/namespaces/inkscape"
   inkscape:version="1.0 (4035a4fb49, 2020-05-01)"
   inkscape:export-ydpi="196.881"
   inkscape:export-xdpi="196.881"
   inkscape:export-filename="C:\Users\austi\Documents\Code\______Projects\2020-7-28 Email Sender API\banner.png"
   sodipodi:docname="banner.svg"
   version="1.1"
   viewBox="0 0 1424.4427 809.6832"
   height="809.68323"
   width="1424.4427"
   data-name="Layer 1"
   id="b76bd6b3-ad77-41ff-b778-1d1d054fe577">
  <metadata
     id="metadata54">
    <rdf:RDF>
      <cc:Work
         rdf:about="">
        <dc:format>image/svg+xml</dc:format>
        <dc:type
           rdf:resource="http://purl.org/dc/dcmitype/StillImage" />
      </cc:Work>
    </rdf:RDF>
  </metadata>
  <defs
     id="defs52" />
  <sodipodi:namedview
     inkscape:current-layer="b76bd6b3-ad77-41ff-b778-1d1d054fe577"
     inkscape:window-maximized="0"
     inkscape:window-y="0"
     inkscape:window-x="32"
     inkscape:cy="454.46734"
     inkscape:cx="-209.27469"
     inkscape:zoom="0.40015648"
     showgrid="false"
     id="namedview50"
     inkscape:window-height="1030"
     inkscape:window-width="1541"
     inkscape:pageshadow="2"
     inkscape:pageopacity="0"
     guidetolerance="10"
     gridtolerance="10"
     objecttolerance="10"
     borderopacity="1"
     bordercolor="#666666"
     pagecolor="#ffffff" />
  <rect
     y="0"
     x="0"
     height="809.68323"
     width="1424.4427"
     id="rect56"
     style="fill:#ffffff;fill-opacity:1;stroke:none;stroke-width:11.3386;stroke-linejoin:round" />
  <path
     id="path33"
     fill="#3f3d56"
     d="m 1002.3282,333.12106 a 0.99678,0.99678 0 0 1 -0.5708,-0.1792 L 725.19852,140.33834 a 5.01548,5.01548 0 0 0 -5.72852,0.01 l -274.56677,192.5918 a 1.0001909,1.0001909 0 0 1 -1.14868,-1.6377 l 274.567,-192.5918 a 7.02216,7.02216 0 0 1 8.02,-0.0132 l 276.55885,192.603 a 1.00019,1.00019 0 0 1 -0.5723,1.8208 z" />
  <polygon
     transform="translate(437.32889,137.44624)"
     id="polygon35"
     fill="#e6e6e6"
     points="549.276,216.319 298.776,364.819 162.776,333.819 23.264,202.502 285.276,8.319 " />
  <path
     id="path37"
     fill="#6c63ff"
     d="M 611.58442,593.98732 H 482.14411 a 6.04737,6.04737 0 1 1 0,-12.09473 h 129.44031 a 6.04737,6.04737 0 1 1 0,12.09473 z" />
  <path
     id="path39"
     fill="#6c63ff"
     d="m 528.58442,567.98732 h -46.44031 a 6.04737,6.04737 0 1 1 0,-12.09473 h 46.44031 a 6.04737,6.04737 0 1 1 0,12.09473 z" />
  <path
     id="path41"
     fill="#ffffff"
     d="m 726.28905,448.10572 a 7.56366,7.56366 0 0 1 -2.86914,-0.562 L 561.82909,380.49488 v -209.874 a 7.00817,7.00817 0 0 1 7,-7 h 310 a 7.00818,7.00818 0 0 1 7,7 v 210.0205 l -0.30371,0.12989 -156.28027,66.73972 a 7.61624,7.61624 0 0 1 -2.95606,0.59473 z" />
  <path
     id="path43"
     fill="#3f3d56"
     d="m 726.28905,448.60523 a 8.07177,8.07177 0 0 1 -3.05957,-0.59863 L 561.32909,380.82886 v -210.208 a 7.50851,7.50851 0 0 1 7.5,-7.5 h 310 a 7.50851,7.50851 0 0 1 7.5,7.5 v 210.35058 l -156.8877,66.999 a 8.10957,8.10957 0 0 1 -3.15234,0.63479 z m -162.96,-69.1123 160.66309,66.66455 a 6.1182,6.1182 0 0 0 4.668,-0.0278 l 155.669,-66.47851 V 170.62086 a 5.50653,5.50653 0 0 0 -5.5,-5.5 h -310 a 5.50653,5.50653 0 0 0 -5.5,5.5 z" />
  <path
     id="path45"
     fill="#3f3d56"
     d="m 1000.3289,331.12106 h -0.2002 l -114.79981,49.02002 -157.06982,67.07 a 5.06614,5.06614 0 0 1 -3.88038,0.02 l -162.0498,-67.23002 -117.62012,-48.8 -0.17968,-0.08 h -0.2002 a 7.00778,7.00778 0 0 0 -7,7 v 304 a 7.00779,7.00779 0 0 0 7,7 h 556.00001 a 7.00779,7.00779 0 0 0 7,-7 v -304 a 7.00778,7.00778 0 0 0 -7,-7 z m 5,311 a 5.002,5.002 0 0 1 -5,5 H 444.32889 a 5.002,5.002 0 0 1 -5,-5 v -304 a 5.01106,5.01106 0 0 1 4.81006,-5 l 118.18994,49.03998 161.28027,66.92 a 7.12081,7.12081 0 0 0 5.43994,-0.03 l 156.27979,-66.73998 115.20021,-49.19 a 5.01621,5.01621 0 0 1 4.7998,5 z" />
  <path
     id="path47"
     fill="#6c63ff"
     d="m 724.67389,388.59323 a 27.49862,27.49862 0 0 1 -16.5459,-5.4961 l -0.2959,-0.22217 -62.311,-47.70752 a 27.683371,27.683371 0 1 1 33.67407,-43.94921 l 40.36035,30.94775 95.37793,-124.38672 a 27.68235,27.68235 0 0 1 38.81323,-5.12353 l -0.593,0.80517 0.6084,-0.79346 a 27.71447,27.71447 0 0 1 5.12353,38.81348 L 746.69827,377.78951 a 27.69447,27.69447 0 0 1 -22.02438,10.80372 z" />
</svg>
